<?xml version="1.0" encoding="iso-8859-1"?>
<!-- Generator: Adobe Illustrator 19.0.0, SVG Export Plug-In . SVG Version: 6.00 Build 0)  -->
<svg version="1.1" id="Capa_1" xmlns="http://www.w3.org/2000/svg" xmlns:xlink="http://www.w3.org/1999/xlink" x="0px" y="0px"
	 viewBox="0 0 512 512" style="enable-background:new 0 0 512 512;" xml:space="preserve">
<path style="fill:#E0E4EC;" d="M467,0H45C20.099,0,0,20.099,0,45v121c0,24.899,20.099,45,45,45h165v45
	c0,11.999,13.5,19.2,23.401,12.599L256,254.2l65.501-43.2H467c24.901,0,45-20.101,45-45V45C512,20.099,491.901,0,467,0z"/>
<path style="fill:#D1D7E3;" d="M512,45v121c0,24.899-20.099,45-45,45H321.501L256,254.2V0h211C491.901,0,512,20.099,512,45z"/>
<path style="fill:#7984EB;" d="M195,512H15c-8.291,0-15-6.709-15-15v-31c0-57.891,47.109-105,105-105s105,47.109,105,105v31
	C210,505.291,203.291,512,195,512z"/>
<path style="fill:#6B77E8;" d="M195,512c8.291,0,15-6.709,15-15v-31c0-57.891-47.109-105-105-105v151H195z"/>
<path style="fill:#83C9FF;" d="M105,391c-41.353,0-75-33.647-75-75s33.647-75,75-75s75,33.647,75,75S146.353,391,105,391z"/>
<path style="fill:#00A5FF;" d="M180,316c0-41.353-33.647-75-75-75v150C146.353,391,180,357.353,180,316z"/>
<g>
	<path style="fill:#949FB3;" d="M452,76c0,8.399-6.599,15-15,15H75c-8.401,0-15-6.601-15-15c0-8.401,6.599-15,15-15h362
		C445.401,61,452,67.599,452,76z"/>
	<path style="fill:#949FB3;" d="M332,136c0,8.399-6.599,15-15,15H75c-8.401,0-15-6.601-15-15c0-8.401,6.599-15,15-15h242
		C325.401,121,332,127.599,332,136z"/>
</g>
<path style="fill:#CA80DC;" d="M497,512H317c-8.291,0-15-6.709-15-15v-31c0-57.891,47.109-105,105-105s105,47.109,105,105v31
	C512,505.291,505.291,512,497,512z"/>
<path style="fill:#B757D1;" d="M497,512c8.291,0,15-6.709,15-15v-31c0-57.891-47.109-105-105-105v151H497z"/>
<path style="fill:#FF90C2;" d="M407,391c-41.353,0-75-33.647-75-75s33.647-75,75-75s75,33.647,75,75S448.353,391,407,391z"/>
<path style="fill:#FF73B1;" d="M482,316c0-41.353-33.647-75-75-75v150C448.353,391,482,357.353,482,316z"/>
<g>
	<path style="fill:#8A94A8;" d="M332,136c0,8.399-6.599,15-15,15h-61v-30h61C325.401,121,332,127.599,332,136z"/>
	<path style="fill:#8A94A8;" d="M452,76c0,8.399-6.599,15-15,15H256V61h181C445.401,61,452,67.599,452,76z"/>
</g>
<g>
</g>
<g>
</g>
<g>
</g>
<g>
</g>
<g>
</g>
<g>
</g>
<g>
</g>
<g>
</g>
<g>
</g>
<g>
</g>
<g>
</g>
<g>
</g>
<g>
</g>
<g>
</g>
<g>
</g>
</svg>
