<?xml version="1.0" encoding="iso-8859-1"?>
<!-- Generator: Adobe Illustrator 19.0.0, SVG Export Plug-In . SVG Version: 6.00 Build 0)  -->
<svg version="1.1" id="Layer_1" xmlns="http://www.w3.org/2000/svg" xmlns:xlink="http://www.w3.org/1999/xlink" x="0px" y="0px"
	 viewBox="0 0 512 512" style="enable-background:new 0 0 512 512;" xml:space="preserve">
<rect x="106.58" style="fill:#4BBAED;" width="298.84" height="439.31"/>
<g>
	<rect x="256" style="fill:#388CB2;" width="149.42" height="439.31"/>
	<rect x="106.58" y="417.96" style="fill:#388CB2;" width="298.84" height="94.04"/>
</g>
<rect x="256" y="417.96" style="fill:#265D77;" width="149.42" height="94.04"/>
<rect x="106.58" style="fill:#388CB2;" width="298.84" height="32.578"/>
<rect x="256.69" style="fill:#265D77;" width="148.73" height="32.578"/>
<circle style="fill:#4BBAED;" cx="256" cy="464.98" r="31.347"/>
<path style="fill:#388CB2;" d="M256,433.633c17.312,0,31.347,14.034,31.347,31.347S273.313,496.327,256,496.327"/>
<g>
	<rect x="213.16" y="342.36" style="fill:#FFFFFF;" width="85.68" height="30"/>
	<rect x="213.16" y="69.64" style="fill:#FFFFFF;" width="85.68" height="30"/>
</g>
<circle style="fill:#FFDB2D;" cx="263.79" cy="201.12" r="56.42"/>
<path style="fill:#FFF1AD;" d="M263.79,273.223c-39.755,0-72.098-32.343-72.098-72.098s32.343-72.098,72.098-72.098
	s72.098,32.343,72.098,72.098S303.546,273.223,263.79,273.223z M263.79,160.374c-22.47,0-40.751,18.281-40.751,40.751
	s18.281,40.751,40.751,40.751s40.751-18.281,40.751-40.751C304.542,178.654,286.261,160.374,263.79,160.374z"/>
<path style="fill:#FFE97F;" d="M263.79,129.027v31.347c22.47,0,40.751,18.281,40.751,40.751s-18.281,40.751-40.751,40.751v31.347
	c39.755,0,72.098-32.343,72.098-72.098C335.888,161.37,303.546,129.027,263.79,129.027z"/>
<path style="fill:#B7E4F8;" d="M298.805,243.281h-15.188c-2.131-23.634-21.984-42.156-46.172-42.156
	c-25.611,0-46.372,20.761-46.372,46.372c0,1.689,0.096,3.354,0.272,4.996c-6.509,6.149-10.577,14.853-10.577,24.513l0,0
	c0,18.626,15.099,33.725,33.725,33.725h84.312c18.626,0,33.725-15.099,33.725-33.725l0,0
	C332.53,258.38,317.431,243.281,298.805,243.281z"/>
<g>
</g>
<g>
</g>
<g>
</g>
<g>
</g>
<g>
</g>
<g>
</g>
<g>
</g>
<g>
</g>
<g>
</g>
<g>
</g>
<g>
</g>
<g>
</g>
<g>
</g>
<g>
</g>
<g>
</g>
</svg>
