<?xml version="1.0" encoding="iso-8859-1"?>
<!-- Generator: Adobe Illustrator 19.0.0, SVG Export Plug-In . SVG Version: 6.00 Build 0)  -->
<svg version="1.1" id="Layer_1" xmlns="http://www.w3.org/2000/svg" xmlns:xlink="http://www.w3.org/1999/xlink" x="0px" y="0px"
	 viewBox="0 0 512 512" style="enable-background:new 0 0 512 512;" xml:space="preserve">
<path style="fill:#80D0E1;" d="M379.387,99.428c-30.123-38.013-75.103-59.815-123.406-59.815
	c-48.279,0-93.245,21.802-123.369,59.815c-6.795,8.574-19.253,10.016-27.824,3.222c-8.574-6.794-10.017-19.252-3.222-27.824
	C139.248,27.274,195.53,0,255.981,0c60.475,0.001,116.772,27.274,154.453,74.825c6.794,8.574,5.352,21.031-3.222,27.824
	C398.639,109.443,386.182,108.004,379.387,99.428z"/>
<path style="fill:#51B3DA;" d="M410.433,74.825C372.755,27.279,316.466,0.007,256,0v39.613
	c48.296,0.007,93.268,21.807,123.387,59.815c6.795,8.575,19.251,10.014,27.824,3.222C415.785,95.857,417.228,83.399,410.433,74.825z
	"/>
<path style="fill:#80D0E1;" d="M179.854,161.995c-8.578-6.79-10.026-19.247-3.238-27.823c19.33-24.42,48.262-38.426,79.379-38.426
	c31.123,0,60.059,14.006,79.39,38.426c6.79,8.578,5.34,21.033-3.238,27.823c-8.578,6.788-21.033,5.34-27.823-3.238
	c-11.77-14.871-29.385-23.398-48.329-23.398c-18.936,0-36.548,8.529-48.317,23.398C200.888,167.333,188.431,168.784,179.854,161.995
	z"/>
<path style="fill:#6A82A1;" d="M256,441.926c-10.939,0-19.807-8.868-19.807-19.807v-92.923c0-10.939,8.868-19.807,19.807-19.807
	c10.938,0,19.807,8.868,19.807,19.807v92.923C275.806,433.058,266.938,441.926,256,441.926z"/>
<path style="fill:#2C3E50;" d="M256,309.389v132.536c10.938,0,19.807-8.868,19.807-19.807v-92.923
	C275.806,318.257,266.938,309.389,256,309.389z"/>
<g>
	<path style="fill:#E6E7E8;" d="M334.564,512h-157.13c-10.939,0-19.807-8.868-19.807-19.807V422.12
		c0-10.939,8.868-19.807,19.807-19.807h157.13c10.939,0,19.807,8.868,19.807,19.807v70.073C354.371,503.132,345.503,512,334.564,512
		z"/>
	<path style="fill:#E6E7E8;" d="M256,349.002c-60.118,0-109.027-48.91-109.027-109.027c0-10.939,8.868-19.807,19.807-19.807h178.443
		c10.939,0,19.807,8.868,19.807,19.807C365.027,300.093,316.118,349.002,256,349.002z"/>
</g>
<path style="fill:#51B3DA;" d="M335.384,134.171c-19.33-24.419-48.263-38.425-79.385-38.426v39.613
	c18.942,0.001,36.554,8.529,48.324,23.398c6.791,8.578,19.245,10.026,27.823,3.238C340.724,155.206,342.174,142.749,335.384,134.171
	z"/>
<g>
	<path style="fill:#BCBEC0;" d="M334.564,402.313H256v109.686h78.565c10.939,0,19.807-8.868,19.807-19.807v-70.073
		C354.371,411.181,345.503,402.313,334.564,402.313z"/>
	<path style="fill:#BCBEC0;" d="M345.22,220.169H256v128.834c60.118,0,109.027-48.91,109.027-109.027
		C365.027,229.037,356.16,220.169,345.22,220.169z"/>
</g>
<g>
</g>
<g>
</g>
<g>
</g>
<g>
</g>
<g>
</g>
<g>
</g>
<g>
</g>
<g>
</g>
<g>
</g>
<g>
</g>
<g>
</g>
<g>
</g>
<g>
</g>
<g>
</g>
<g>
</g>
</svg>
