<?xml version="1.0" encoding="UTF-8"?>
<svg width="240px" height="249px" viewBox="0 0 240 249" version="1.1" xmlns="http://www.w3.org/2000/svg" xmlns:xlink="http://www.w3.org/1999/xlink">
    <!-- Generator: Sketch 43.1 (39012) - http://www.bohemiancoding.com/sketch -->
    <title>avataaars (1)</title>
    <desc>Created with Sketch.</desc>
    <defs>
        <ellipse id="path-1" cx="120" cy="120" rx="120" ry="120"></ellipse>
        <path d="M12,160 C12,226.27417 65.72583,280 132,280 C198.27417,280 252,226.27417 252,160 L264,160 L264,-1.42108547e-14 L-3.19744231e-14,-1.42108547e-14 L-3.19744231e-14,160 L12,160 Z" id="path-3"></path>
        <path d="M124,144.610951 L124,163 L128,163 L128,163 C167.764502,163 200,195.235498 200,235 L200,244 L0,244 L0,235 C-4.86974701e-15,195.235498 32.235498,163 72,163 L72,163 L76,163 L76,144.610951 C58.7626345,136.422372 46.3722246,119.687011 44.3051388,99.8812385 C38.4803105,99.0577866 34,94.0521096 34,88 L34,74 C34,68.0540074 38.3245733,63.1180731 44,62.1659169 L44,56 L44,56 C44,25.072054 69.072054,5.68137151e-15 100,0 L100,0 L100,0 C130.927946,-5.68137151e-15 156,25.072054 156,56 L156,62.1659169 C161.675427,63.1180731 166,68.0540074 166,74 L166,88 C166,94.0521096 161.51969,99.0577866 155.694861,99.8812385 C153.627775,119.687011 141.237365,136.422372 124,144.610951 Z" id="path-5"></path>
        <path d="M124,144.610951 L124,163 L128,163 L128,163 C167.764502,163 200,195.235498 200,235 L200,244 L0,244 L0,235 C-4.86974701e-15,195.235498 32.235498,163 72,163 L72,163 L76,163 L76,144.610951 C58.7626345,136.422372 46.3722246,119.687011 44.3051388,99.8812385 C38.4803105,99.0577866 34,94.0521096 34,88 L34,74 C34,68.0540074 38.3245733,63.1180731 44,62.1659169 L44,56 L44,56 C44,25.072054 69.072054,5.68137151e-15 100,0 L100,0 L100,0 C130.927946,-5.68137151e-15 156,25.072054 156,56 L156,62.1659169 C161.675427,63.1180731 166,68.0540074 166,74 L166,88 C166,94.0521096 161.51969,99.0577866 155.694861,99.8812385 C153.627775,119.687011 141.237365,136.422372 124,144.610951 Z" id="path-7"></path>
        <path d="M73.192402,0.0517235 L72,0.0517235 L72,0.0517235 C32.235498,0.0517235 0,32.2872215 0,72.051724 L0,81 L200,81 L200,72.051724 C200,32.2872215 167.764502,0.0517235 128,0.0517235 L128,0.0517235 L126.807598,0.0517235 C126.934638,1.0353144 127,2.0364513 127,3.0517235 C127,16.8588423 114.911688,28.0517235 100,28.0517235 C85.088312,28.0517235 73,16.8588423 73,3.0517235 C73,2.0364513 73.065362,1.0353144 73.192402,0.0517235 Z" id="path-9"></path>
        <rect id="path-11" x="0" y="0" width="264" height="280"></rect>
        <path d="M93.308863,9.006118 C73.121091,-2.6934891 53.128954,-0.7780146 38.036894,3.0299707 C22.9448338,6.8379559 14.0168242,17.6513048 6.3566792,33.6480618 C2.5956048,41.5028569 0.3660182,50.7914798 0.0230569,59.4813651 C-0.1115571,62.8932666 0.3484305,66.415154 1.267729,69.7003546 C1.6049405,70.9061873 3.4232441,75.086987 3.9224658,71.70885 C4.0885348,70.584253 3.4804043,69.0327505 3.4215529,67.8376154 C3.3444374,66.2693977 3.4273028,64.6807875 3.5341822,63.1149098 C3.7340739,60.1874141 4.2559568,57.3154127 5.1847257,54.524647 C6.5119249,50.5367405 8.2013644,46.212859 10.7874413,42.8480942 C17.1883705,34.5205939 28.268658,34.045883 37.066257,29.4635848 C36.302881,30.8686624 33.359637,33.1432635 34.379389,34.7268592 C35.083576,35.8207003 37.749474,35.4890712 39.022219,35.4539693 C42.370996,35.3623702 45.734993,34.7796791 49.042844,34.306974 C54.255923,33.5618115 59.140585,32.0517626 64.046555,30.2181078 C68.06299,28.7164165 72.650012,27.3257139 75.66868,24.1404701 C80.539813,29.1881187 86.809849,33.9345599 93.070414,37.1428706 C98.68835,40.0222267 107.748751,41.461069 111.182761,47.3006826 C115.2479,54.2147477 113.37751,62.7073939 114.619138,70.2008069 C115.091302,73.05041 116.164155,72.986558 116.751315,70.4378281 C117.748406,66.1082634 118.219217,61.6102098 117.901961,57.1592929 C117.183568,47.1114668 113.496636,20.7057251 93.308863,9.006118 Z" id="path-13"></path>
    </defs>
    <g id="Page-1" stroke="none" stroke-width="1" fill="none" fill-rule="evenodd">
        <g id="avataaars-(1)" transform="translate(-12.000000, -31.000000)">
            <g id="Circle" transform="translate(12.000000, 40.000000)">
                <g id="Color/Palette/Blue-01-Clipped" transform="translate(-0.000000, 0.000000)">
                    <mask id="mask-2" fill="white">
                        <use xlink:href="#path-1"></use>
                    </mask>
                    <g id="path-1"></g>
                    <g id="Color/Palette/Blue-01" mask="url(#mask-2)" fill-rule="nonzero" fill="#98D06D">
                        <rect id="ðŸ–Color" x="0" y="0" width="240" height="240"></rect>
                    </g>
                </g>
            </g>
            <g id="Avataaar-Clipped">
                <mask id="mask-4" fill="white">
                    <use xlink:href="#path-3"></use>
                </mask>
                <g id="path-3"></g>
                <g id="Avataaar" mask="url(#mask-4)">
                    <g transform="translate(0.000000, 5.000000)">
                        <g id="Body" transform="translate(32.000000, 31.000000)">
                            <g id="path-5-link" fill-rule="nonzero" fill="#D0C6AC">
                                <path d="M124,144.610951 L124,163 L128,163 L128,163 C167.764502,163 200,195.235498 200,235 L200,244 L0,244 L0,235 C-4.86974701e-15,195.235498 32.235498,163 72,163 L72,163 L76,163 L76,144.610951 C58.7626345,136.422372 46.3722246,119.687011 44.3051388,99.8812385 C38.4803105,99.0577866 34,94.0521096 34,88 L34,74 C34,68.0540074 38.3245733,63.1180731 44,62.1659169 L44,56 L44,56 C44,25.072054 69.072054,5.68137151e-15 100,0 L100,0 L100,0 C130.927946,-5.68137151e-15 156,25.072054 156,56 L156,62.1659169 C161.675427,63.1180731 166,68.0540074 166,74 L166,88 C166,94.0521096 161.51969,99.0577866 155.694861,99.8812385 C153.627775,119.687011 141.237365,136.422372 124,144.610951 Z" id="path-5"></path>
                            </g>
                            <g id="Skin/ðŸ‘¶ðŸ½-03-Brown-Clipped">
                                <mask id="mask-6" fill="white">
                                    <use xlink:href="#path-5"></use>
                                </mask>
                                <g id="path-5"></g>
                                <g id="Skin/ðŸ‘¶ðŸ½-03-Brown" mask="url(#mask-6)">
                                    <g transform="translate(-32.000000, 0.000000)" id="Color">
                                        <g>
                                            <rect id="Rectangle-path" fill="#EDB98A" fill-rule="nonzero" x="0" y="0" width="264" height="244"></rect>
                                        </g>
                                    </g>
                                </g>
                            </g>
                            <g id="Neck-Shadow-Clipped">
                                <mask id="mask-8" fill="white">
                                    <use xlink:href="#path-7"></use>
                                </mask>
                                <g id="path-5"></g>
                                <path d="M156,79 L156,102 C156,132.927946 130.927946,158 100,158 C69.072054,158 44,132.927946 44,102 L44,79 L44,94 C44,124.927946 69.072054,150 100,150 C130.927946,150 156,124.927946 156,94 L156,79 Z" id="Neck-Shadow" fill-opacity="0.100000001" fill="#000000" fill-rule="nonzero" mask="url(#mask-8)"></path>
                            </g>
                        </g>
                        <g id="Clothing/Collar-+-Sweater" transform="translate(32.000000, 187.000000)">
                            <g id="Clothes" transform="translate(0.000000, 7.000000)" fill="#E6E6E6">
                                <path d="M73.192402,0.0517235 L72,0.0517235 L72,0.0517235 C32.235498,0.0517235 0,32.2872215 0,72.051724 L0,81 L200,81 L200,72.051724 C200,32.2872215 167.764502,0.0517235 128,0.0517235 L128,0.0517235 L126.807598,0.0517235 C126.934638,1.0353144 127,2.0364513 127,3.0517235 C127,16.8588423 114.911688,28.0517235 100,28.0517235 C85.088312,28.0517235 73,16.8588423 73,3.0517235 C73,2.0364513 73.065362,1.0353144 73.192402,0.0517235 Z" id="react-path-193"></path>
                            </g>
                            <g id="Color/Palette/Gray-01-Clipped" transform="translate(0.000000, 7.000000)">
                                <mask id="mask-10" fill="white">
                                    <use xlink:href="#path-9"></use>
                                </mask>
                                <g id="react-path-193"></g>
                                <g id="Color/Palette/Gray-01" mask="url(#mask-10)" fill="#C2594E">
                                    <g transform="translate(-32.000000, -29.000000)" id="ðŸ–Color">
                                        <rect x="0" y="0" width="264" height="110"></rect>
                                    </g>
                                </g>
                            </g>
                            <path d="M124,1.2794906 C130.181647,5.8351858 134,12.1057265 134,19.027915 C134,26.2334941 129.862605,32.7329769 123.228997,37.3271669 L117.57933,32.8764929 L113,33.207887 L114,30.0567821 L113.922229,29.995516 C120.022491,26.8530505 124,21.7003578 124,15.8768102 L124,1.2794906 Z M76,0.5714994 C69.232748,5.1740081 65,11.7397769 65,19.027915 C65,26.4261549 69.361602,33.080035 76.308428,37.6915723 L82.42067,32.8764929 L87,33.207887 L86,30.0567821 L86.077771,29.995516 C79.977509,26.8530505 76,21.7003578 76,15.8768102 L76,0.5714994 Z" id="Collar" fill="#F2F2F2"></path>
                        </g>
                        <g id="Face" transform="translate(88.000000, 83.000000)">
                            <g id="Mouth/Twinkle" transform="translate(30.000000, 60.000000)" fill-opacity="0.599999964" fill-rule="nonzero" fill="#000000">
                                <path d="M0,2 C0,7.371763 6.1581544,11 14,11 C21.8418456,11 28,7.371763 28,2 C28,0.8954305 27.050301,0 26,0 C24.7072748,0 24.1302316,0.9051755 24,2 C22.7575758,4.9378973 19.6832595,6.7163149 14,7 C8.3167405,6.7163149 5.2424242,4.9378973 4,2 C3.8697684,0.9051755 3.2927252,0 2,0 C0.949699,0 0,0.8954305 0,2 Z" id="Mouth"></path>
                            </g>
                            <g id="Nose/Default" transform="translate(32.000000, 42.000000)" fill-opacity="0.16" fill-rule="nonzero" fill="#000000">
                                <path d="M0,0 C0,4.418278 5.372583,8 12,8 L12,8 C18.627417,8 24,4.418278 24,0" id="Nose"></path>
                            </g>
                            <g id="Eyes/Default-ðŸ˜€" transform="translate(12.000000, 18.000000)" fill-rule="nonzero" fill="#000000" fill-opacity="0.599999964">
                                <ellipse id="Eye" cx="6" cy="6" rx="6" ry="6"></ellipse>
                                <ellipse id="Eye" cx="58" cy="6" rx="6" ry="6"></ellipse>
                            </g>
                            <g id="Eyebrow/Outline/Default" fill-rule="nonzero" fill-opacity="0.599999964" fill="#000000">
                                <g id="I-Browse">
                                    <path d="M3.63024536,11.1585767 C7.54515501,5.64986673 18.2779197,2.56083721 27.5230268,4.83118046 C28.5957248,5.0946055 29.6788665,4.43856013 29.9422916,3.36586212 C30.2057166,2.2931641 29.5496712,1.21002236 28.4769732,0.94659732 C17.7403633,-1.69001789 5.31209962,1.88699832 0.369754639,8.84142326 C-0.270109626,9.74178291 -0.0589363917,10.9903811 0.84142326,11.6302454 C1.74178291,12.2701096 2.9903811,12.0589364 3.63024536,11.1585767 Z" id="Eyebrow"></path>
                                    <path d="M61.6302461,11.1585767 C65.5451557,5.64986673 76.2779204,2.56083721 85.5230275,4.83118046 C86.5957255,5.0946055 87.6788672,4.43856013 87.9422923,3.36586212 C88.2057173,2.2931641 87.5496719,1.21002236 86.4769739,0.94659732 C75.740364,-1.69001789 63.3121003,1.88699832 58.3697553,8.84142326 C57.7298911,9.74178291 57.9410643,10.9903811 58.841424,11.6302454 C59.7417836,12.2701096 60.9903818,12.0589364 61.6302461,11.1585767 Z" id="Eyebrow" transform="translate(73.000154, 6.039198) scale(-1, 1) translate(-73.000154, -6.039198) "></path>
                                </g>
                            </g>
                        </g>
                        <g id="Top">
                            <g id="Top/Short-Hair/Short-Round-Clipped">
                                <mask id="mask-12" fill="white">
                                    <use xlink:href="#path-11"></use>
                                </mask>
                                <g id="react-path-246"></g>
                                <g id="Top/Short-Hair/Short-Round" mask="url(#mask-12)">
                                    <g transform="translate(69.000000, 26.000000)" id="Group">
                                        <g>
                                            <g id="Short-Hair" transform="translate(4.000000, 0.000000)" fill="#28354B">
                                                <path d="M93.308863,9.006118 C73.121091,-2.6934891 53.128954,-0.7780146 38.036894,3.0299707 C22.9448338,6.8379559 14.0168242,17.6513048 6.3566792,33.6480618 C2.5956048,41.5028569 0.3660182,50.7914798 0.0230569,59.4813651 C-0.1115571,62.8932666 0.3484305,66.415154 1.267729,69.7003546 C1.6049405,70.9061873 3.4232441,75.086987 3.9224658,71.70885 C4.0885348,70.584253 3.4804043,69.0327505 3.4215529,67.8376154 C3.3444374,66.2693977 3.4273028,64.6807875 3.5341822,63.1149098 C3.7340739,60.1874141 4.2559568,57.3154127 5.1847257,54.524647 C6.5119249,50.5367405 8.2013644,46.212859 10.7874413,42.8480942 C17.1883705,34.5205939 28.268658,34.045883 37.066257,29.4635848 C36.302881,30.8686624 33.359637,33.1432635 34.379389,34.7268592 C35.083576,35.8207003 37.749474,35.4890712 39.022219,35.4539693 C42.370996,35.3623702 45.734993,34.7796791 49.042844,34.306974 C54.255923,33.5618115 59.140585,32.0517626 64.046555,30.2181078 C68.06299,28.7164165 72.650012,27.3257139 75.66868,24.1404701 C80.539813,29.1881187 86.809849,33.9345599 93.070414,37.1428706 C98.68835,40.0222267 107.748751,41.461069 111.182761,47.3006826 C115.2479,54.2147477 113.37751,62.7073939 114.619138,70.2008069 C115.091302,73.05041 116.164155,72.986558 116.751315,70.4378281 C117.748406,66.1082634 118.219217,61.6102098 117.901961,57.1592929 C117.183568,47.1114668 113.496636,20.7057251 93.308863,9.006118 Z" id="react-path-245"></path>
                                            </g>
                                            <g id="Skin/ðŸ‘¶ðŸ½-03-Brown-Clipped" transform="translate(4.000000, 0.000000)">
                                                <mask id="mask-14" fill="white">
                                                    <use xlink:href="#path-13"></use>
                                                </mask>
                                                <g id="react-path-245"></g>
                                                <g id="Skin/ðŸ‘¶ðŸ½-03-Brown" mask="url(#mask-14)">
                                                    <g transform="translate(-74.000000, -26.000000)" id="Color">
                                                        <g>
                                                            <rect id="Rectangle-path" fill="#4A312C" fill-rule="nonzero" x="0" y="0" width="264" height="280"></rect>
                                                        </g>
                                                    </g>
                                                </g>
                                            </g>
                                            <g id="Top/_Resources/Round" transform="translate(0.000000, 62.000000)">
                                                <g id="Lennon-Glasses">
                                                    <g id="react-path-252-link" fill-rule="nonzero" fill="#000000">
                                                        <path d="M72.4646192,13.3941179 C76.3801509,5.45869677 84.552602,0 94,0 C102.919691,0 110.702887,4.86591082 114.839921,12.0880638 C115.050197,12.0306504 115.271519,12 115.5,12 L123.5,12 C124.880712,12 126,13.1192881 126,14.5 C126,15.8807119 124.880712,17 123.5,17 L116.963126,17 C117.637355,19.2145921 118,21.5649459 118,24 C118,37.254834 107.254834,48 94,48 C80.745166,48 70,37.254834 70,24 C70,22.5781066 70.1236513,21.1850936 70.3607874,19.8311273 C70.2762458,15.4553035 66.9135957,12 62.8624171,12 C59.1256697,12 55.9747186,14.9397535 55.4417635,18.8300629 C55.8073299,20.4951922 56,22.2250958 56,24 C56,37.254834 45.254834,48 32,48 C18.745166,48 8,37.254834 8,24 C8,21.5649459 8.3626451,19.2145921 9.0368738,17 L2.5,17 C1.11928813,17 0,15.8807119 0,14.5 C0,13.1192881 1.11928813,12 2.5,12 L2.5,12 L10.5,12 C10.728481,12 10.9498033,12.0306504 11.1600793,12.0880638 C15.2971127,4.86591082 23.0803092,0 32,0 C41.3521568,0 49.4549431,5.34919095 53.415666,13.15488 C55.4929212,10.0392725 58.9494432,8 62.8624171,8 C66.8746823,8 70.4070368,10.1440781 72.4646192,13.3941179 Z M32,44 C43.045695,44 52,35.045695 52,24 C52,12.954305 43.045695,4 32,4 C20.954305,4 12,12.954305 12,24 C12,35.045695 20.954305,44 32,44 Z M94,44 C105.045695,44 114,35.045695 114,24 C114,12.954305 105.045695,4 94,4 C82.954305,4 74,12.954305 74,24 C74,35.045695 82.954305,44 94,44 Z" id="react-path-252"></path>
                                                    </g>
                                                    <g id="react-path-252-link" fill="#252C2F">
                                                        <path d="M72.4646192,13.3941179 C76.3801509,5.45869677 84.552602,0 94,0 C102.919691,0 110.702887,4.86591082 114.839921,12.0880638 C115.050197,12.0306504 115.271519,12 115.5,12 L123.5,12 C124.880712,12 126,13.1192881 126,14.5 C126,15.8807119 124.880712,17 123.5,17 L116.963126,17 C117.637355,19.2145921 118,21.5649459 118,24 C118,37.254834 107.254834,48 94,48 C80.745166,48 70,37.254834 70,24 C70,22.5781066 70.1236513,21.1850936 70.3607874,19.8311273 C70.2762458,15.4553035 66.9135957,12 62.8624171,12 C59.1256697,12 55.9747186,14.9397535 55.4417635,18.8300629 C55.8073299,20.4951922 56,22.2250958 56,24 C56,37.254834 45.254834,48 32,48 C18.745166,48 8,37.254834 8,24 C8,21.5649459 8.3626451,19.2145921 9.0368738,17 L2.5,17 C1.11928813,17 0,15.8807119 0,14.5 C0,13.1192881 1.11928813,12 2.5,12 L2.5,12 L10.5,12 C10.728481,12 10.9498033,12.0306504 11.1600793,12.0880638 C15.2971127,4.86591082 23.0803092,0 32,0 C41.3521568,0 49.4549431,5.34919095 53.415666,13.15488 C55.4929212,10.0392725 58.9494432,8 62.8624171,8 C66.8746823,8 70.4070368,10.1440781 72.4646192,13.3941179 Z M32,44 C43.045695,44 52,35.045695 52,24 C52,12.954305 43.045695,4 32,4 C20.954305,4 12,12.954305 12,24 C12,35.045695 20.954305,44 32,44 Z M94,44 C105.045695,44 114,35.045695 114,24 C114,12.954305 105.045695,4 94,4 C82.954305,4 74,12.954305 74,24 C74,35.045695 82.954305,44 94,44 Z" id="react-path-252"></path>
                                                    </g>
                                                </g>
                                            </g>
                                        </g>
                                    </g>
                                </g>
                            </g>
                        </g>
                    </g>
                </g>
            </g>
        </g>
    </g>
</svg>