<svg id="Layer_1" data-name="Layer 1" xmlns="http://www.w3.org/2000/svg" width="11in" height="8in" viewBox="0 0 792 576"><defs><style>.cls-1{fill:#fff;}.cls-2{fill:#57abc1;}.cls-3,.cls-38,.cls-40,.cls-41,.cls-42,.cls-43{fill:none;stroke-miterlimit:10;stroke-width:2px;}.cls-3{stroke:#247065;stroke-linecap:round;}.cls-4{fill:#7ccbd8;}.cls-5{fill:#458985;}.cls-6{fill:#efce4a;}.cls-7{fill:#f7e6a1;}.cls-8{fill:#2b3d54;}.cls-9{fill:#edeada;}.cls-10{fill:#424a60;}.cls-11{fill:#ebba16;}.cls-12{fill:#ed7161;}.cls-13{fill:#c8d2d6;}.cls-14{fill:#e7eced;}.cls-15{fill:#fbce9d;}.cls-16{fill:#f7b563;}.cls-17{font-size:48px;}.cls-17,.cls-23,.cls-29,.cls-37{fill:#222729;}.cls-17,.cls-23{font-family:AvenirNext-Regular, Avenir Next;}.cls-18{letter-spacing:-0.01em;}.cls-19{letter-spacing:-0.01em;}.cls-20{letter-spacing:-0.05em;}.cls-21{letter-spacing:-0.02em;}.cls-22{letter-spacing:0em;}.cls-23,.cls-37,.cls-39{font-size:24px;}.cls-24{letter-spacing:-0.06em;}.cls-25{letter-spacing:-0.03em;}.cls-26{letter-spacing:0em;}.cls-27{letter-spacing:-0.02em;}.cls-28{letter-spacing:-0.02em;}.cls-29{font-size:18px;}.cls-29,.cls-37,.cls-39{font-family:Avenir-Medium, Avenir;}.cls-30{letter-spacing:-0.11em;}.cls-31{font-size:14px;font-family:Avenir-Roman, Avenir;}.cls-32{letter-spacing:0em;}.cls-33{letter-spacing:0em;}.cls-34{letter-spacing:-0.02em;}.cls-35{letter-spacing:-0.04em;}.cls-36{letter-spacing:-0.02em;}.cls-38{stroke:#0071bc;}.cls-39{fill:#0071bc;}.cls-40{stroke:#57abc1;}.cls-41{stroke:#efce4a;}.cls-42{stroke:#ebba16;}.cls-43{stroke:#2b3d54;}.cls-44{fill:#2c5b61;}</style></defs><title>iterative design process</title><rect class="cls-1" width="792" height="576"/><circle class="cls-2" cx="103.44" cy="172.98" r="41.37"/><line class="cls-3" x1="131.26" y1="203.59" x2="163.42" y2="237.04"/><path class="cls-4" d="M64.17,185.92a41.09,41.09,0,0,0,8.62,14.78l58.36-58.36a41.08,41.08,0,0,0-14.78-8.62Z"/><path class="cls-5" d="M103.44,216.42A43.44,43.44,0,1,1,146.87,173,43.49,43.49,0,0,1,103.44,216.42Zm0-82.74a39.3,39.3,0,1,0,39.3,39.3A39.34,39.34,0,0,0,103.44,133.68Z"/><path class="cls-6" d="M280.41,129.21A39.82,39.82,0,0,0,268,206.85v24.41h5v7.47h14.94v-7.47h5V206.85a39.82,39.82,0,0,0-12.45-77.64Z"/><path class="cls-6" d="M280.41,106.81a2.49,2.49,0,0,0-2.49,2.49v10a2.49,2.49,0,1,0,5,0v-10A2.49,2.49,0,0,0,280.41,106.81Z"/><path class="cls-6" d="M340.15,166.55h-10a2.49,2.49,0,0,0,0,5h10a2.49,2.49,0,0,0,0-5Z"/><path class="cls-6" d="M230.63,166.55h-10a2.49,2.49,0,0,0,0,5h10a2.49,2.49,0,0,0,0-5Z"/><path class="cls-6" d="M320.9,125l-7,7a2.49,2.49,0,1,0,3.52,3.52l7-7A2.49,2.49,0,1,0,320.9,125Z"/><path class="cls-6" d="M243.45,202.48l-7,7a2.49,2.49,0,1,0,3.52,3.52l7-7a2.49,2.49,0,1,0-3.52-3.52Z"/><path class="cls-6" d="M317.38,202.48a2.49,2.49,0,0,0-3.52,3.52l7,7a2.49,2.49,0,0,0,3.52-3.52Z"/><path class="cls-6" d="M239.93,125a2.49,2.49,0,1,0-3.52,3.52l7,7a2.49,2.49,0,0,0,3.52-3.52Z"/><path class="cls-7" d="M253,171.53a2.49,2.49,0,0,1-2.49-2.49,29.9,29.9,0,0,1,29.87-29.87,2.49,2.49,0,0,1,0,5A24.92,24.92,0,0,0,255.52,169,2.49,2.49,0,0,1,253,171.53Z"/><polygon class="cls-8" points="267.97 213.84 267.97 231.27 272.95 231.27 272.95 238.74 287.88 238.74 287.88 231.27 292.86 231.27 292.86 213.84 267.97 213.84"/><polygon class="cls-9" points="484.32 200.54 469.35 204.62 473.44 189.66 530.83 132.26 437.77 132.26 437.77 236.17 541.68 236.17 541.68 143.19 484.32 200.54"/><path class="cls-7" d="M473.78,200.19a1.92,1.92,0,0,1,0,2.72l-.69.69,11.15-3-10.83-10.83-3,11.15.69-.69A1.92,1.92,0,0,1,473.78,200.19Z"/><path class="cls-10" d="M473.09,203.6l.69-.69a1.92,1.92,0,0,0-2.72-2.72l-.69.69-1,3.74Z"/><polygon class="cls-11" points="536.02 148.84 525.14 137.95 473.44 189.66 473.41 189.73 484.24 200.56 484.32 200.54 536.02 148.84"/><path class="cls-12" d="M548.29,131.17l-5.48-5.48a3.82,3.82,0,0,0-5.4,0l-6.82,6.82,10.89,10.89,6.82-6.82A3.82,3.82,0,0,0,548.29,131.17Z"/><polygon class="cls-7" points="525.14 137.95 530.58 132.51 530.58 132.51 525.14 137.95"/><rect class="cls-7" x="529.46" y="132.97" width="7.7" height="15.39" transform="translate(56.73 418.3) rotate(-45)"/><rect class="cls-13" x="660.46" y="214.64" width="52.66" height="24.14"/><path class="cls-14" d="M695.57,238.78H660.46V214.64h20.68a14.42,14.42,0,0,1,14.42,14.42Z"/><circle class="cls-8" cx="681.31" cy="226.71" r="5.49"/><path class="cls-15" d="M677.81,135a7.67,7.67,0,1,0-10.11-10.11Z"/><path class="cls-15" d="M688.78,146a7.67,7.67,0,1,0-10.11-10.11Z"/><path class="cls-15" d="M699.75,156.94a7.67,7.67,0,1,0-10.11-10.11Z"/><path class="cls-15" d="M710.72,167.91a7.67,7.67,0,1,0-10.11-10.11Z"/><path class="cls-15" d="M665.95,183.92H644a7.7,7.7,0,0,1-7.68-7.68h0a7.7,7.7,0,0,1,7.68-7.68h21.94a7.7,7.7,0,0,1,7.68,7.68h0A7.7,7.7,0,0,1,665.95,183.92Z"/><path class="cls-16" d="M711.23,180.77l-24.4,24.4a5,5,0,0,1-7.12,0l-21.24-21.25H644c-1.27.62-4.73-1.62-3.4-.48l23.72,23.63c.16.16.35.28.52.43v7.14h43.88v-9.9a16.4,16.4,0,0,0,2.49-24Z"/><path class="cls-8" d="M660.66,117.85,626.53,152l16.66,16.66a7.83,7.83,0,0,1,.82-.08h21.94a7.68,7.68,0,1,1,0,15.36h-7.48l13.94,13.94,34.13-34.14Z"/><path class="cls-14" d="M660.66,117.85,655.8,113a5,5,0,0,0-7.12,0l-27,27a5,5,0,0,0,0,7.12l4.86,4.86Z"/><path class="cls-14" d="M713.84,171l-7.3-7.3-34.13,34.14,7.3,7.3a5,5,0,0,0,7.12,0l27-27A5,5,0,0,0,713.84,171Z"/><circle class="cls-1" cx="694.47" cy="185.02" r="4.39"/><path class="cls-10" d="M638.52,135.65A2.19,2.19,0,0,1,637,131.9l4.39-4.39a2.19,2.19,0,0,1,3.1,3.1L640.07,135A2.19,2.19,0,0,1,638.52,135.65Z"/><text class="cls-17" transform="translate(103.44 57.42)">My Ite<tspan class="cls-18" x="133.1" y="0">r</tspan><tspan class="cls-19" x="149.8" y="0">a</tspan><tspan x="174.96" y="0">tive Design </tspan><tspan class="cls-20" x="432.38" y="0">P</tspan><tspan class="cls-21" x="457.91" y="0">r</tspan><tspan class="cls-22" x="474.33" y="0">ocess</tspan></text><text class="cls-23" transform="translate(51 334)">RESEARCH</text><text class="cls-23" transform="translate(250.54 334)">IDE<tspan class="cls-24" x="38.62" y="0">A</tspan><tspan x="53.98" y="0">TE</tspan></text><text class="cls-23" transform="translate(416.83 334)">PR<tspan class="cls-25" x="28.3" y="0">OTO</tspan><tspan class="cls-18" x="80.62" y="0">T</tspan><tspan class="cls-26" x="94.01" y="0">YPE</tspan></text><text class="cls-23" transform="translate(650.66 334)">TE<tspan class="cls-27" x="27.89" y="0">S</tspan><tspan class="cls-28" x="40.99" y="0">T</tspan></text><text class="cls-29" transform="translate(25 369.61)"><tspan class="cls-30">T</tspan><tspan x="8.33" y="0">ypes:</tspan><tspan class="cls-31"><tspan x="0" y="16.8">• Compe</tspan><tspan class="cls-32" x="57.33" y="16.8">t</tspan><tspan x="62.27" y="16.8">i</tspan><tspan class="cls-33" x="65.63" y="16.8">t</tspan><tspan x="70.57" y="16.8">ive Analysis</tspan><tspan x="0" y="33.6">• User Resea</tspan><tspan class="cls-34" x="80.67" y="33.6">r</tspan><tspan x="85.34" y="33.6">ch</tspan><tspan x="0" y="50.4">• Literatu</tspan><tspan class="cls-34" x="58.87" y="50.4">r</tspan><tspan x="63.55" y="50.4">e Resea</tspan><tspan class="cls-34" x="112.57" y="50.4">r</tspan><tspan x="117.25" y="50.4">ch</tspan></tspan></text><text class="cls-29" transform="translate(23.94 450.61)">Outcomes:<tspan class="cls-31"><tspan x="0" y="16.8">• Surveys</tspan><tspan x="0" y="33.6">• Diary Stu</tspan><tspan class="cls-32" x="67.96" y="33.6">d</tspan><tspan x="76.52" y="33.6">ies</tspan><tspan x="0" y="50.4">• Ca</tspan><tspan class="cls-34" x="28.01" y="50.4">r</tspan><tspan x="32.69" y="50.4">d Sorts</tspan><tspan x="0" y="67.2">• Interviews</tspan></tspan></text><text class="cls-29" transform="translate(210.91 369.61)">Outcomes:<tspan class="cls-31"><tspan x="0" y="16.8">• Key fin</tspan><tspan class="cls-32" x="53.69" y="16.8">d</tspan><tspan x="62.26" y="16.8">ings</tspan><tspan x="0" y="33.6">• Flow Map</tspan><tspan x="0" y="50.4">• A</tspan><tspan class="cls-34" x="20.75" y="50.4">f</tspan><tspan x="24.91" y="50.4">finity </tspan><tspan class="cls-35" x="59.39" y="50.4">W</tspan><tspan x="72.35" y="50.4">a</tspan><tspan class="cls-32" x="79.62" y="50.4">l</tspan><tspan x="82.99" y="50.4">ls</tspan><tspan x="0" y="67.2">• Personas</tspan><tspan x="0" y="84">• User needs</tspan></tspan></text><text class="cls-29" transform="translate(397.54 369.61)">Outcomes:<tspan class="cls-31"><tspan x="0" y="16.8">• Sketches</tspan><tspan x="0" y="33.6">• Wi</tspan><tspan class="cls-34" x="27.73" y="33.6">r</tspan><tspan x="32.41" y="33.6">eframes</tspan><tspan x="0" y="50.4">• Paper p</tspan><tspan class="cls-34" x="60.17" y="50.4">r</tspan><tspan x="64.85" y="50.4">ototypes</tspan><tspan x="0" y="67.2">• Mid-Fide</tspan><tspan class="cls-32" x="67.65" y="67.2">lt</tspan><tspan x="75.96" y="67.2">iy p</tspan><tspan class="cls-34" x="98.52" y="67.2">r</tspan><tspan x="103.19" y="67.2">ototypes</tspan></tspan></text><text class="cls-29" transform="translate(599.01 371.06)">Outcomes:<tspan class="cls-31"><tspan x="0" y="16.8">• High-Fi</tspan><tspan class="cls-32" x="56.5" y="16.8">d</tspan><tspan x="65.07" y="16.8">leity p</tspan><tspan class="cls-36" x="103.7" y="16.8">r</tspan><tspan x="108.37" y="16.8">ototypes</tspan><tspan x="0" y="33.6">• Data-P</tspan><tspan class="cls-34" x="53.69" y="33.6">r</tspan><tspan x="58.37" y="33.6">oven designs</tspan></tspan></text><text class="cls-37" transform="translate(20 328)">1</text><text class="cls-37" transform="translate(210.91 328)">2</text><text class="cls-37" transform="translate(397.54 328)">3</text><rect class="cls-38" x="678.02" y="506" width="93.46" height="32"/><text class="cls-37" transform="translate(599.01 328)">4</text><text class="cls-39" transform="translate(686.62 529.5)">Repeat</text><rect class="cls-40" x="20" y="307" width="175" height="229"/><rect class="cls-41" x="205.36" y="307" width="175" height="159.49"/><rect class="cls-42" x="394.27" y="307" width="175" height="144.98"/><rect class="cls-43" x="594.9" y="305.55" width="175" height="131.45"/><path class="cls-44" d="M133.42,118.83a37.12,37.12,0,0,1,58.83-6c1.33,1.41,3.45-.72,2.12-2.12a40.15,40.15,0,0,0-63.54,6.65c-1,1.65,1.58,3.16,2.59,1.51Z"/><path class="cls-44" d="M192,110.24a41.2,41.2,0,0,0-12.76,4.55c-1.69.93-.18,3.53,1.51,2.59a38.69,38.69,0,0,1,12-4.25c1.9-.34,1.09-3.23-.8-2.89Z"/><path class="cls-44" d="M195,110.61A16.78,16.78,0,0,1,194,97.91c.56-1.85-2.33-2.64-2.89-.8a19.92,19.92,0,0,0,1.36,15c.87,1.72,3.46.21,2.59-1.51Z"/><path class="cls-44" d="M335,117.84a37.12,37.12,0,0,1,58.83-6c1.33,1.41,3.45-.72,2.12-2.12a40.15,40.15,0,0,0-63.54,6.65c-1,1.65,1.58,3.16,2.59,1.51Z"/><path class="cls-44" d="M393.64,109.26a41.2,41.2,0,0,0-12.76,4.55c-1.69.93-.18,3.53,1.51,2.59a38.69,38.69,0,0,1,12-4.25c1.9-.34,1.09-3.23-.8-2.89Z"/><path class="cls-44" d="M396.63,109.63a16.78,16.78,0,0,1-1.06-12.7c.56-1.85-2.33-2.64-2.89-.8a19.92,19.92,0,0,0,1.36,15c.87,1.72,3.46.21,2.59-1.51Z"/><path class="cls-44" d="M536.6,118.68a37.12,37.12,0,0,1,58.83-6c1.33,1.41,3.45-.72,2.12-2.12A40.15,40.15,0,0,0,534,117.17c-1,1.65,1.58,3.16,2.59,1.51Z"/><path class="cls-44" d="M595.24,110.1a41.2,41.2,0,0,0-12.76,4.55c-1.69.93-.18,3.53,1.51,2.59A38.69,38.69,0,0,1,596,113c1.9-.34,1.09-3.23-.8-2.89Z"/><path class="cls-44" d="M598.23,110.46a16.78,16.78,0,0,1-1.06-12.7c.56-1.85-2.33-2.64-2.89-.8a19.92,19.92,0,0,0,1.36,15c.87,1.72,3.46.21,2.59-1.51Z"/><path class="cls-44" d="M647.72,241.44a37.12,37.12,0,0,1-58.83,6c-1.33-1.41-3.45.72-2.12,2.12A40.15,40.15,0,0,0,650.31,243c1-1.65-1.58-3.16-2.59-1.51Z"/><path class="cls-44" d="M589.08,250a41.2,41.2,0,0,0,12.76-4.55c1.69-.93.18-3.53-1.51-2.59a38.69,38.69,0,0,1-12,4.25c-1.9.34-1.09,3.23.8,2.89Z"/><path class="cls-44" d="M586.09,249.65a16.78,16.78,0,0,1,1.06,12.7c-.56,1.85,2.33,2.64,2.89.8a19.92,19.92,0,0,0-1.36-15c-.87-1.72-3.46-.21-2.59,1.51Z"/><path class="cls-44" d="M446.12,242.42a37.12,37.12,0,0,1-58.83,6c-1.33-1.41-3.45.72-2.12,2.12a40.15,40.15,0,0,0,63.54-6.65c1-1.65-1.58-3.16-2.59-1.51Z"/><path class="cls-44" d="M387.49,251a41.2,41.2,0,0,0,12.76-4.55c1.69-.93.18-3.53-1.51-2.59a38.69,38.69,0,0,1-12,4.25c-1.9.34-1.09,3.23.8,2.89Z"/><path class="cls-44" d="M384.5,250.64a16.78,16.78,0,0,1,1.06,12.7c-.56,1.85,2.33,2.64,2.89.8a19.92,19.92,0,0,0-1.36-15c-.87-1.72-3.46-.21-2.59,1.51Z"/><path class="cls-44" d="M244.53,241.58a37.12,37.12,0,0,1-58.83,6c-1.33-1.41-3.45.72-2.12,2.12a40.15,40.15,0,0,0,63.54-6.65c1-1.65-1.58-3.16-2.59-1.51Z"/><path class="cls-44" d="M185.9,250.17a41.2,41.2,0,0,0,12.76-4.55c1.69-.93.18-3.53-1.51-2.59a38.69,38.69,0,0,1-12,4.25c-1.9.34-1.09,3.23.8,2.89Z"/><path class="cls-44" d="M182.91,249.8A16.78,16.78,0,0,1,184,262.5c-.56,1.85,2.33,2.64,2.89.8a19.92,19.92,0,0,0-1.36-15c-.87-1.72-3.46-.21-2.59,1.51Z"/></svg>